<svg xmlns="http://www.w3.org/2000/svg" viewBox="0 0 227.95 126.03"><defs><style>.cls-1{fill:#00b2d9;}.cls-2{fill:#414042;}</style></defs><title>logo</title><g id="Layer_2" data-name="Layer 2"><g id="art"><path class="cls-1" d="M66,102.77a47.16,47.16,0,1,1,36.79-76.64,55.62,55.62,0,1,0,0,59A47.06,47.06,0,0,1,66,102.77Z"/><path class="cls-1" d="M39.71,61.35A37.45,37.45,0,0,1,89.52,26a37.43,37.43,0,1,0-35,65.18A37.4,37.4,0,0,1,39.71,61.35Z"/><path class="cls-1" d="M126,93.84a6.67,6.67,0,0,1-1.42,2.94A5.72,5.72,0,0,1,120,98.87c-3.84,0-6.38-2.86-6.38-7.15,0-4.54,2.46-7.52,6.2-7.52a4.84,4.84,0,0,1,3.08,1.06,7.93,7.93,0,0,1,1.1,1.1V84.48h1.78v4.88H124a3.91,3.91,0,0,0-.8-1.74,3.84,3.84,0,0,0-3.08-1.46c-2.4,0-4,2.24-4,5.6,0,3.16,1.54,5.11,4,5.11a3.54,3.54,0,0,0,3.1-1.84,5.71,5.71,0,0,0,.52-1.19Z"/><path class="cls-1" d="M127.93,93.12c0-3.22,2.1-5.52,5-5.52s5.1,2.24,5.1,5.56S136,98.83,133,98.83,127.93,96.51,127.93,93.12Zm7.9.12c0-2.46-1-3.88-2.84-3.88s-2.82,1.52-2.82,3.92,1.1,3.79,2.82,3.79S135.83,95.58,135.83,93.24Z"/><path class="cls-1" d="M143.43,89.54A5.57,5.57,0,0,1,145.19,88,3.85,3.85,0,0,1,147,87.6a3,3,0,0,1,3.18,3.1v6.19h1.26v1.7H148V91.3a1.78,1.78,0,0,0-1.72-2,3.24,3.24,0,0,0-2.9,3.12v4.47h1.28v1.7H140v-1.7h1.28V89.54H140v-1.7h3.4Z"/><path class="cls-1" d="M154.73,95a2.93,2.93,0,0,0,.62,1.08,3.33,3.33,0,0,0,2.48,1.14,1.87,1.87,0,0,0,2-1.67c0-1-.56-1.34-3.22-1.67-2.32-.31-3.56-1.45-3.56-3.15a3.16,3.16,0,0,1,3.42-3.08,3.86,3.86,0,0,1,3.16,1.54v-1.3h1.64V91.1h-1.64a2.5,2.5,0,0,0-.54-1,2.88,2.88,0,0,0-2.22-1c-1.12,0-2,.64-2,1.46s.56,1.1,2.36,1.34c1.16.14,2.94.38,3.8,1.56a3.45,3.45,0,0,1,.6,2,3.31,3.31,0,0,1-3.5,3.38,4,4,0,0,1-2.58-.9,5.79,5.79,0,0,1-.86-1v1.68h-1.64V95Z"/><path class="cls-1" d="M163.33,87.84h3.32v7.31a1.77,1.77,0,0,0,1.82,2,3.14,3.14,0,0,0,2.76-2.91v-4.7H170v-1.7h3.34v9h1.24v1.7h-3.34V96.91a5.07,5.07,0,0,1-1.9,1.54,3.87,3.87,0,0,1-1.64.38,3,3,0,0,1-3.14-3.29v-6h-1.22Z"/><path class="cls-1" d="M176.47,83.68h3.32V96.89h1.28v1.7h-4.6v-1.7h1.22V85.38h-1.22Z"/><path class="cls-1" d="M183.85,84.7h2.08v3.14h2.4v1.7h-2.4v6.19c0,1,.44,1.32,1.62,1.32a7.37,7.37,0,0,0,.78,0v1.62c-.42,0-1.22.1-1.68.1-2,0-2.8-.68-2.8-2.28V89.54h-1.56v-1.7h1.56Z"/><path class="cls-1" d="M189.91,93.12c0-3.22,2.1-5.52,5-5.52s5.1,2.24,5.1,5.56-2.08,5.67-5.12,5.67S189.91,96.51,189.91,93.12Zm7.9.12c0-2.46-1-3.88-2.84-3.88s-2.82,1.52-2.82,3.92,1.1,3.79,2.82,3.79S197.81,95.58,197.81,93.24Z"/><path class="cls-1" d="M205.39,90.24c.58-1.28,1.24-2.64,3.12-2.64a3.89,3.89,0,0,1,1,.14v2a4.23,4.23,0,0,0-1-.16,3.24,3.24,0,0,0-3.1,3.2v4.09h1.22v1.7h-4.56v-1.7h1.24V89.54h-1.2v-1.7h3.3Z"/><path class="cls-1" d="M211.07,87.84h3.36v9h1.2v1.7h-4.58v-1.7h1.28V89.52h-1.26Zm.58-1.12L213,83.8h3.06l-2.68,2.92Z"/><path class="cls-1" d="M224.59,97.15a5,5,0,0,1-3.6,1.68,3.25,3.25,0,0,1-3.48-3.22,2.93,2.93,0,0,1,.8-2.09c.82-.84,2-1.22,4.86-1.54l1.4-.16v-.68c0-1.24-.8-1.92-2.26-1.92a1.9,1.9,0,0,0-2.2,1.78h-2.22a3.31,3.31,0,0,1,1-2.28,5.09,5.09,0,0,1,3.52-1.12c2.66,0,4.22,1.32,4.22,3.56v5.73H228v1.7h-3.36Zm0-4-.94.14c-2,.3-2.78.59-3.32,1.13a1.58,1.58,0,0,0-.46,1,1.85,1.85,0,0,0,1.86,1.83,2.93,2.93,0,0,0,2.86-2.67Z"/><path class="cls-1" d="M109.09,108.48h10.46v4.26h-1.92v-2.42h-4.9v4.08h4.84v1.82h-4.84v4.52h5.18v-2.66h1.92v4.51H109.09v-1.85h1.38V110.32h-1.38Z"/><path class="cls-1" d="M125.29,113.54a4,4,0,0,1,3.18-1.94,2.43,2.43,0,0,1,2.52,2,3.87,3.87,0,0,1,3.22-2,2.69,2.69,0,0,1,2.66,3v6.31h1.26v1.7h-3.36v-7.65c0-.72-.2-1.64-1.22-1.64-1.46,0-2.46,1.92-2.46,2.66v4.93h1.24v1.7H129V114.9c0-1.26-.6-1.62-1.24-1.62-1.46,0-2.52,2.06-2.44,3.2v4.41h1.32v1.7h-4.74v-1.7h1.32v-7.35h-1.32v-1.7h3.4Z"/><path class="cls-1" d="M143.15,113.38a3.89,3.89,0,0,1,3.38-1.78c2.54,0,4.3,2.32,4.3,5.66s-1.82,5.57-4.32,5.57a3.94,3.94,0,0,1-3.36-1.78v3.28h1.28V126h-4.66v-1.7h1.28V113.54h-1.28v-1.7h3.38Zm2.72,7.69c1.7,0,2.66-1.38,2.66-3.87s-1-3.84-2.58-3.84-2.82,1.54-2.82,3.72C143.13,119.53,144.21,121.07,145.87,121.07Z"/><path class="cls-1" d="M156.09,114.24c.58-1.28,1.24-2.64,3.12-2.64a3.89,3.89,0,0,1,1,.14v2a4.23,4.23,0,0,0-1-.16,3.24,3.24,0,0,0-3.1,3.2v4.09h1.22v1.7h-4.56v-1.7H154v-7.35h-1.2v-1.7h3.3Z"/><path class="cls-1" d="M171.05,119.28a4.89,4.89,0,0,1-4.62,3.55c-3,0-5.1-2.32-5.1-5.73a5.17,5.17,0,0,1,5.16-5.5c1.74,0,4.74,1,4.74,6h-7.72c.1,2.43,1.6,3.39,3,3.39a2.15,2.15,0,0,0,2.2-1.75Zm-2.18-3.14c-.1-1.78-.94-2.74-2.42-2.74-2.22,0-2.86,2.44-2.86,2.74Z"/><path class="cls-1" d="M174.91,119a2.93,2.93,0,0,0,.62,1.08,3.33,3.33,0,0,0,2.48,1.14,1.87,1.87,0,0,0,2-1.67c0-1-.56-1.34-3.22-1.67-2.32-.31-3.56-1.45-3.56-3.15a3.16,3.16,0,0,1,3.42-3.08,3.86,3.86,0,0,1,3.16,1.54v-1.3h1.64v3.26h-1.64a2.5,2.5,0,0,0-.54-1,2.88,2.88,0,0,0-2.22-1c-1.12,0-2,.64-2,1.46s.56,1.1,2.36,1.34c1.16.14,2.94.38,3.8,1.56a3.45,3.45,0,0,1,.6,2,3.31,3.31,0,0,1-3.5,3.38,4,4,0,0,1-2.58-.9,5.79,5.79,0,0,1-.86-1v1.68h-1.64V119Z"/><path class="cls-1" d="M190.91,121.15a5,5,0,0,1-3.6,1.68,3.25,3.25,0,0,1-3.48-3.22,3,3,0,0,1,.8-2.09c.82-.84,2-1.22,4.86-1.54l1.4-.16v-.68c0-1.24-.8-1.92-2.26-1.92a1.9,1.9,0,0,0-2.2,1.78h-2.22a3.31,3.31,0,0,1,1-2.28,5.09,5.09,0,0,1,3.52-1.12c2.66,0,4.22,1.32,4.22,3.56v5.73h1.28v1.7h-3.36Zm0-4-.94.14c-2,.3-2.78.59-3.32,1.13a1.58,1.58,0,0,0-.46,1,1.85,1.85,0,0,0,1.86,1.83,2.93,2.93,0,0,0,2.86-2.67Z"/><path class="cls-1" d="M199.15,114.24c.58-1.28,1.24-2.64,3.12-2.64a3.89,3.89,0,0,1,1,.14v2a4.23,4.23,0,0,0-1-.16,3.24,3.24,0,0,0-3.1,3.2v4.09h1.22v1.7h-4.56v-1.7h1.24v-7.35h-1.2v-1.7h3.3Z"/><path class="cls-1" d="M204.83,111.84h3.36v9h1.2v1.7h-4.58v-1.7h1.28v-7.37h-1.26Zm1.1-3.9h2.26v2.26h-2.26Z"/><path class="cls-1" d="M218.35,121.15a5,5,0,0,1-3.6,1.68,3.25,3.25,0,0,1-3.48-3.22,3,3,0,0,1,.8-2.09c.82-.84,2-1.22,4.86-1.54l1.4-.16v-.68c0-1.24-.8-1.92-2.26-1.92a1.9,1.9,0,0,0-2.2,1.78h-2.22a3.31,3.31,0,0,1,1-2.28,5.09,5.09,0,0,1,3.52-1.12c2.66,0,4.22,1.32,4.22,3.56v5.73h1.28v1.7h-3.36Zm0-4-.94.14c-2,.3-2.78.59-3.32,1.13a1.58,1.58,0,0,0-.46,1,1.85,1.85,0,0,0,1.86,1.83,2.93,2.93,0,0,0,2.86-2.67Z"/><path class="cls-1" d="M223.25,107.68h3.32v13.21h1.28v1.7h-4.6v-1.7h1.22V109.38h-1.22Z"/><path class="cls-2" d="M67.35,34.91h5.52V70.43H91.55v5.18H67.35Z"/><path class="cls-2" d="M95.69,62a13.79,13.79,0,0,1,1.12-5.57,14.54,14.54,0,0,1,26.72,0A13.8,13.8,0,0,1,124.66,62a14.25,14.25,0,0,1-4.2,10.15,14.72,14.72,0,0,1-4.6,3.05,15,15,0,0,1-11.38,0,14.72,14.72,0,0,1-4.6-3.05A14.18,14.18,0,0,1,95.69,62Zm5.51,0a10.94,10.94,0,0,0,.64,3.82,8.5,8.5,0,0,0,1.78,3,8.07,8.07,0,0,0,2.82,2,10,10,0,0,0,7.47,0,8.12,8.12,0,0,0,2.81-2,8.67,8.67,0,0,0,1.79-3,11.9,11.9,0,0,0,0-7.64,8.76,8.76,0,0,0-1.79-3,8.23,8.23,0,0,0-2.81-2,10,10,0,0,0-7.47,0,8.18,8.18,0,0,0-2.82,2,8.59,8.59,0,0,0-1.78,3A11,11,0,0,0,101.2,62Z"/><path class="cls-2" d="M132.3,48.36h5.18v4.2h.11a7.26,7.26,0,0,1,1.38-2,8.93,8.93,0,0,1,1.93-1.52,10.12,10.12,0,0,1,2.32-1,8.91,8.91,0,0,1,2.53-.37,7.26,7.26,0,0,1,2.3.35l-.23,5.57c-.42-.11-.84-.21-1.26-.29a7.78,7.78,0,0,0-1.27-.11,7.59,7.59,0,0,0-5.8,2.13c-1.35,1.41-2,3.62-2,6.61V75.61H132.3Z"/><path class="cls-2" d="M157.59,63.88a6.82,6.82,0,0,0,.78,3.25,8.13,8.13,0,0,0,2,2.5,9.55,9.55,0,0,0,2.93,1.61,10.58,10.58,0,0,0,3.45.57A7.65,7.65,0,0,0,171,70.69a13.35,13.35,0,0,0,3.28-3l3.91,3q-4.3,5.58-12.07,5.58a14.92,14.92,0,0,1-5.83-1.1,12.61,12.61,0,0,1-4.43-3,13.41,13.41,0,0,1-2.79-4.54,16.16,16.16,0,0,1-1-5.67,14.89,14.89,0,0,1,1.07-5.66,14.08,14.08,0,0,1,2.93-4.54,13.44,13.44,0,0,1,4.45-3,14.54,14.54,0,0,1,5.64-1.09,13.38,13.38,0,0,1,6.12,1.27,12,12,0,0,1,4.11,3.3,13.08,13.08,0,0,1,2.33,4.6,19.47,19.47,0,0,1,.71,5.2v1.84Zm16.33-4.14a10.82,10.82,0,0,0-.55-3.16,6.65,6.65,0,0,0-3.91-4.17,9,9,0,0,0-3.42-.6,8.26,8.26,0,0,0-3.47.72,8.42,8.42,0,0,0-2.68,1.87A8.52,8.52,0,0,0,158.2,57a6.93,6.93,0,0,0-.61,2.79Z"/><path class="cls-2" d="M186.79,48.36h4.83v4.25h.12a4.35,4.35,0,0,1,.89-1.43,9,9,0,0,1,1.84-1.64,10.85,10.85,0,0,1,2.64-1.32,9.79,9.79,0,0,1,3.36-.55,9.6,9.6,0,0,1,5.12,1.27A9.33,9.33,0,0,1,209,52.73a8.67,8.67,0,0,1,3.74-3.79,10.3,10.3,0,0,1,4.88-1.27,11.26,11.26,0,0,1,5.17,1,8.3,8.3,0,0,1,3.17,2.72,10.67,10.67,0,0,1,1.58,3.86,23.24,23.24,0,0,1,.43,4.45V75.61h-5.18V60.43a20.76,20.76,0,0,0-.2-3,6.86,6.86,0,0,0-.83-2.53A4.82,4.82,0,0,0,220,53.16a6.11,6.11,0,0,0-3.05-.66q-3.74,0-5.34,2.3A10,10,0,0,0,210,60.72V75.61h-5.18V61.35a27.72,27.72,0,0,0-.2-3.56,8.24,8.24,0,0,0-.8-2.79,4.45,4.45,0,0,0-1.73-1.84,5.89,5.89,0,0,0-3-.66,6.77,6.77,0,0,0-2.68.55,6.23,6.23,0,0,0-2.27,1.63,8,8,0,0,0-1.55,2.79,12.57,12.57,0,0,0-.57,4V75.61h-5.18Z"/></g></g></svg>